<svg width="614" height="541" viewBox="0 0 614 541" fill="none" xmlns="http://www.w3.org/2000/svg">
<rect width="613.594" height="541" rx="107.657" fill="#2448FF"/>
<path d="M481.913 390.778C481.913 414.545 462.646 433.812 438.879 433.812H402.531C392.345 433.812 382.489 430.198 374.717 423.615L315.121 373.136C302.744 362.652 310.158 342.429 326.378 342.429C368.444 342.429 390.219 323.128 392.199 284.032C392.199 243.946 369.928 223.656 324.894 223.161H284.786C261.019 223.161 241.752 242.428 241.752 266.195V390.778C241.752 414.545 222.485 433.812 198.718 433.812H175.564C152.492 433.812 133.558 415.648 133.02 392.582C132.095 352.853 131.437 291.631 134.28 242C138.898 161.383 178.581 121.081 241.752 112.5C296.17 105.108 346.066 110.452 358.848 112.074C360.973 112.344 363.08 112.484 365.221 112.547C406.187 113.754 437.278 137.795 458.5 159.5C483.913 194 481.913 214.5 481.913 253.5C481.913 304.968 481.913 266.867 481.913 309.228V390.778Z" fill="white"/>
</svg>
